<?xml version="1.0" standalone="no"?>
<!DOCTYPE svg PUBLIC "-//W3C//DTD SVG 20010904//EN"
 "http://www.w3.org/TR/2001/REC-SVG-20010904/DTD/svg10.dtd">
<svg version="1.0" xmlns="http://www.w3.org/2000/svg"
 width="300.000000pt" height="450.000000pt" viewBox="0 0 300.000000 450.000000"
 preserveAspectRatio="xMidYMid meet">
<metadata>
Created by potrace 1.10, written by Peter Selinger 2001-2011
</metadata>
<g transform="translate(0.000000,450.000000) scale(0.100000,-0.100000)"
fill="#000000" stroke="none">
<path d="M1813 3802 c-8 -5 -9 -13 -3 -22 6 -8 10 -10 10 -5 0 6 19 10 42 10
46 0 108 -21 108 -37 0 -5 4 -7 9 -4 5 3 20 -4 34 -17 14 -12 34 -29 44 -37
11 -8 28 -28 39 -45 10 -16 21 -32 24 -35 10 -10 48 -96 95 -212 46 -118 65
-222 41 -232 -6 -3 -5 -5 2 -5 10 -1 9 -5 -3 -18 -14 -13 -18 -14 -25 -3 -5 8
-6 -2 -3 -26 4 -32 0 -44 -21 -69 -14 -16 -26 -33 -26 -36 0 -3 -13 -4 -28 -1
-18 2 -35 -2 -45 -12 -10 -10 -18 -12 -22 -6 -4 6 -10 8 -15 5 -5 -3 -16 8
-25 25 -8 16 -18 30 -20 30 -3 0 4 -18 15 -41 16 -29 18 -44 11 -53 -9 -10 -6
-12 14 -8 14 2 30 13 36 23 14 26 51 23 72 -6 17 -23 17 -25 1 -25 -10 0 -26
7 -36 17 -21 19 -24 6 -4 -19 17 -23 66 -24 66 -1 0 9 -8 25 -17 36 -18 19
-17 19 41 16 41 -3 60 0 63 9 3 8 -9 12 -43 12 -47 0 -48 1 -26 16 12 8 22 22
22 30 0 8 5 14 10 14 6 0 10 6 10 14 0 7 7 19 15 26 9 7 14 15 11 17 -2 3 -1
17 4 32 13 46 -8 139 -61 271 -67 167 -109 239 -169 293 -74 67 -202 108 -247
79z"/>
<path d="M1560 3387 c0 -9 5 -17 11 -17 5 0 8 -4 4 -10 -3 -5 4 -17 15 -27 11
-10 34 -31 50 -48 17 -16 30 -25 30 -20 0 15 -42 60 -62 68 -10 3 -18 12 -18
19 0 7 -7 22 -15 32 -13 17 -15 18 -15 3z"/>
<path d="M1682 3203 c3 -41 6 -48 26 -51 13 -2 26 -11 29 -20 3 -9 11 -24 18
-32 6 -8 20 -35 30 -60 21 -49 75 -129 88 -130 5 0 6 4 3 9 -4 5 10 19 30 32
l36 22 -29 23 c-15 13 -31 23 -35 24 -11 0 -10 -18 2 -25 6 -3 10 -13 10 -21
0 -8 -4 -14 -10 -14 -5 0 -10 6 -10 13 0 6 -18 32 -40 56 -42 46 -47 56 -30
66 6 3 10 12 10 18 0 7 -4 6 -10 -3 -6 -10 -10 -11 -10 -2 0 6 -7 12 -15 12
-8 0 -15 9 -15 19 0 13 -9 21 -30 26 -29 6 -36 21 -31 62 1 6 -3 15 -9 18 -8
5 -10 -9 -8 -42z"/>
<path d="M1950 2914 c-19 -7 -48 -13 -63 -13 -16 -1 -26 -5 -22 -11 3 -6 -4
-10 -17 -10 -17 0 -24 -6 -24 -19 0 -15 4 -17 16 -11 9 5 22 16 30 24 7 9 17
16 23 16 5 0 3 -8 -5 -17 -9 -10 -20 -31 -25 -47 -5 -17 -15 -32 -22 -34 -10
-3 -10 0 -2 17 7 12 8 21 2 21 -16 0 -71 -61 -71 -79 0 -9 -5 -22 -12 -29 -7
-7 -9 -12 -4 -12 4 0 0 -7 -8 -16 -9 -8 -16 -20 -16 -25 0 -18 15 -9 35 20 10
16 24 29 29 28 5 -1 35 33 66 76 32 44 76 91 101 107 47 32 45 35 -11 14z"/>
<path d="M2212 2918 c-18 -18 -14 -28 8 -28 11 0 20 6 20 14 0 21 -15 27 -28
14z"/>
<path d="M2250 2903 c0 -6 7 -18 15 -27 8 -8 19 -25 24 -38 9 -21 10 -21 10
-3 1 11 -10 34 -24 50 -13 17 -24 25 -25 18z"/>
<path d="M1985 2850 c-3 -6 5 -10 19 -10 16 0 24 -5 21 -12 -6 -17 15 -47 21
-31 7 15 73 -16 74 -34 0 -17 43 -43 86 -53 20 -5 33 -5 28 -1 -5 4 -28 22
-51 40 -24 18 -43 41 -43 52 0 12 -5 16 -15 13 -8 -3 -35 6 -61 20 -50 28 -69
32 -79 16z"/>
<path d="M1900 2795 c-19 -46 -40 -127 -35 -136 3 -4 -1 -9 -8 -12 -7 -2 -13
-17 -15 -31 -1 -15 -7 -36 -12 -47 -6 -10 -7 -19 -2 -19 5 0 6 -20 2 -45 -4
-25 -3 -45 2 -45 4 0 8 11 8 24 0 14 12 67 26 118 14 51 32 117 40 146 17 61
13 93 -6 47z"/>
<path d="M2240 2800 c0 -6 -4 -9 -9 -6 -5 4 -11 1 -13 -6 -3 -7 9 -19 26 -28
33 -17 46 -16 46 3 -1 15 -50 52 -50 37z"/>
<path d="M2298 2757 c-3 -16 0 -33 6 -40 7 -6 11 -22 9 -36 -3 -25 -3 -25 8
-4 9 16 8 31 -3 65 -14 42 -15 42 -20 15z"/>
<path d="M2235 2648 c-4 -18 -9 -157 -10 -308 -2 -161 -7 -285 -13 -300 -6
-14 -22 -40 -36 -59 -21 -28 -26 -46 -25 -90 0 -38 3 -50 8 -36 4 11 7 34 6
52 -2 20 4 39 16 52 10 11 19 23 19 26 0 3 8 18 18 32 21 33 21 31 25 275 2
109 6 201 10 204 3 4 2 15 -4 26 -12 22 -2 40 10 19 6 -10 10 -9 15 4 9 24 8
25 -11 19 -11 -2 -9 0 4 7 27 14 36 57 17 87 -21 31 -40 27 -49 -10z"/>
<path d="M2332 2660 c0 -8 8 -33 19 -55 10 -22 16 -29 13 -15 -10 38 -32 87
-32 70z"/>
<path d="M1664 2606 c-8 -14 -14 -35 -11 -48 3 -21 5 -21 16 9 7 18 17 30 22
27 5 -3 9 4 9 15 0 28 -16 26 -36 -3z"/>
<path d="M2318 2543 c-5 -62 0 -83 19 -76 13 5 15 -1 11 -35 -2 -23 -1 -42 3
-42 12 0 16 -46 7 -71 -8 -20 -7 -22 4 -11 21 21 17 135 -5 160 -11 12 -16 25
-13 31 8 13 -4 91 -14 91 -5 0 -10 -21 -12 -47z"/>
<path d="M2371 2553 c-1 -6 8 -39 18 -72 10 -34 17 -70 14 -81 -3 -11 0 -26 6
-34 7 -8 11 -18 9 -22 -2 -10 10 -87 18 -116 4 -12 0 -18 -10 -18 -16 0 -21
-12 -9 -23 3 -4 12 1 19 11 12 16 13 16 13 -3 -1 -11 2 -38 6 -60 5 -31 4 -36
-5 -23 -6 10 -17 15 -26 11 -10 -4 -11 -9 -4 -17 6 -9 5 -18 -4 -31 -10 -13
-32 -19 -92 -24 l-79 -6 70 -5 70 -5 0 -31 c0 -17 6 -39 14 -47 8 -10 10 -24
5 -39 -4 -13 -7 -26 -6 -30 1 -5 -2 -8 -8 -8 -6 0 -6 -9 0 -26 13 -32 13 -34
-3 -34 -7 0 -13 -12 -13 -27 -2 -64 -5 -73 -19 -73 -17 0 -19 -14 -5 -40 8
-16 6 -18 -23 -15 -52 5 -111 17 -122 25 -5 4 -19 4 -30 0 -15 -5 -9 -8 25
-14 75 -11 130 -36 130 -59 0 -14 -5 -18 -20 -14 -22 6 -29 -18 -7 -26 6 -2 8
-8 4 -13 -4 -5 -11 -3 -15 3 -7 11 -25 16 -51 14 -13 -1 -7 -15 7 -17 4 0 14
-3 22 -6 99 -37 101 -37 418 -36 244 1 312 4 312 14 0 13 -21 19 -105 30 -27
3 -95 14 -149 25 -99 19 -356 42 -365 33 -13 -13 67 -35 184 -50 16 -2 33 -8
38 -13 5 -5 -41 -7 -113 -4 -97 4 -124 3 -131 -8 -7 -11 -9 -9 -10 6 -3 51 -2
63 15 100 33 73 68 227 61 272 -3 22 -3 64 1 92 6 48 8 51 36 51 28 0 29 2 23
33 -4 17 -12 50 -18 72 -6 22 -10 43 -9 47 1 3 -5 37 -14 75 -8 37 -16 79 -19
93 -5 34 -53 178 -54 163z"/>
<path d="M1861 2517 c-7 -13 -11 -27 -10 -33 4 -24 -2 -55 -11 -49 -5 3 -10
-29 -10 -82 -3 -233 -3 -233 -25 -234 -17 -1 -17 -2 -2 -6 38 -10 11 -71 -29
-64 -7 1 -17 -11 -22 -26 -6 -16 -27 -56 -46 -90 -35 -62 -36 -76 -4 -50 22
17 58 78 58 100 0 9 9 26 20 37 22 22 52 27 48 9 -2 -6 2 -13 7 -15 15 -6 17
126 3 143 -8 10 -8 25 2 56 8 23 14 85 15 137 1 52 7 115 14 139 14 49 10 62
-8 28z"/>
<path d="M1513 2453 c-36 -44 -143 -197 -188 -268 -14 -22 -14 -27 -3 -17 9 7
53 68 98 135 46 67 92 128 102 135 10 7 16 18 13 23 -4 5 -2 9 3 9 6 0 12 7
16 15 9 25 0 17 -41 -32z"/>
<path d="M1429 2232 c-41 -27 -64 -54 -87 -100 -24 -46 -28 -67 -12 -57 6 3
10 15 10 26 0 13 7 19 21 19 15 0 19 4 15 16 -7 19 30 74 50 74 8 0 14 4 14 9
0 5 16 8 36 6 32 -3 33 -2 17 11 -24 18 -33 17 -64 -4z"/>
<path d="M1550 2190 c12 -12 30 -24 39 -25 26 -2 73 -17 100 -31 17 -9 27 -10
30 -3 4 12 11 9 -79 40 -41 15 -84 30 -94 35 -16 6 -16 4 4 -16z"/>
<path d="M1298 2133 c-47 -58 -129 -203 -114 -203 3 0 19 26 37 58 18 31 37
64 44 72 18 23 57 90 52 90 -2 0 -10 -8 -19 -17z"/>
<path d="M1492 2123 c-21 -8 -2 -23 31 -23 30 1 31 1 13 15 -21 16 -24 16 -44
8z"/>
<path d="M1288 2050 c-17 -40 -15 -51 8 -28 9 8 14 26 12 39 -4 22 -5 22 -20
-11z"/>
<path d="M1895 2031 c-10 -17 -30 -34 -42 -40 -13 -6 -23 -16 -23 -22 0 -8 4
-8 15 1 8 7 15 10 15 6 0 -3 9 2 20 11 11 10 20 23 20 29 0 7 7 14 15 18 8 3
15 10 15 16 0 18 -15 10 -35 -19z"/>
<path d="M2887 2003 c-5 -9 -23 -92 -31 -143 l-6 -36 -170 1 c-94 0 -170 3
-170 6 0 8 -59 -2 -65 -11 -5 -7 270 -20 448 -20 80 0 107 3 107 13 0 12 -70
16 -110 6 -16 -4 -17 6 -5 101 4 30 11 59 16 65 5 5 9 13 9 17 0 10 -17 10
-23 1z"/>
<path d="M1174 1883 c-15 -27 -37 -64 -50 -84 -13 -19 -24 -42 -24 -50 0 -7
10 1 21 19 12 17 24 32 29 32 4 0 20 26 35 58 15 31 32 60 39 64 7 5 5 8 -6 8
-10 0 -28 -20 -44 -47z"/>
<path d="M187 1893 c-3 -5 -46 -8 -96 -6 -50 1 -91 -1 -91 -6 0 -8 108 -12
659 -27 183 -6 232 -4 226 5 -4 7 -14 10 -22 7 -8 -3 -23 -1 -34 4 -12 7 -19
7 -19 1 0 -5 -12 -8 -27 -6 -16 2 -28 4 -28 5 0 1 -266 9 -420 11 -66 1 -125
6 -132 11 -6 5 -14 5 -16 1z"/>
<path d="M1440 1871 c-5 -11 -10 -24 -10 -30 0 -17 17 -13 24 7 3 9 9 23 12
30 9 20 -14 14 -26 -7z"/>
<path d="M1640 1854 c0 -8 -4 -12 -10 -9 -9 6 -12 2 -14 -27 -1 -7 -5 -16 -11
-20 -6 -5 -3 -8 6 -8 9 0 22 16 32 40 8 22 11 40 6 40 -5 0 -9 -7 -9 -16z"/>
<path d="M1690 1840 c0 -18 52 -33 64 -19 8 9 8 10 -2 5 -7 -4 -15 -1 -18 8
-7 18 -44 22 -44 6z"/>
<path d="M1334 1734 c9 -8 16 -21 16 -28 0 -14 -20 -36 -32 -36 -13 0 -9 28 5
33 7 3 5 6 -5 6 -23 1 -24 -37 -3 -46 21 -7 55 25 55 52 0 13 -7 26 -16 29
-28 11 -36 6 -20 -10z"/>
<path d="M1627 1689 c2 -55 6 -66 50 -124 47 -62 85 -94 44 -36 -11 15 -18 31
-14 35 3 3 -2 6 -12 6 -10 0 -15 3 -12 7 4 4 -4 19 -18 33 -21 22 -24 32 -17
51 9 25 -2 89 -16 89 -4 0 -6 -27 -5 -61z"/>
<path d="M1578 1709 c-15 -13 -34 -42 -43 -63 -8 -22 -13 -37 -9 -33 4 4 13
-1 20 -11 12 -15 13 -13 8 14 -5 24 0 36 25 63 38 40 36 64 -1 30z"/>
<path d="M0 1662 c0 -7 49 -12 138 -14 200 -6 767 -9 761 -5 -5 5 -260 15
-621 23 -196 5 -278 4 -278 -4z"/>
<path d="M1017 1596 c-5 -21 -6 -40 -3 -43 9 -10 18 24 14 54 -3 26 -4 25 -11
-11z"/>
<path d="M1145 1570 c-4 -11 -10 -18 -13 -16 -4 2 -12 -7 -19 -20 -20 -43 20
-23 43 21 17 32 17 35 5 35 -5 0 -13 -9 -16 -20z"/>
<path d="M771 1561 c-18 -14 -21 -20 -10 -24 8 -3 -8 -6 -34 -6 -30 -1 -46 3
-42 9 7 11 -18 14 -29 3 -3 -4 -33 -8 -66 -9 -48 -1 -60 1 -60 13 0 11 -7 14
-22 10 -74 -16 -93 -18 -78 -8 12 9 10 10 -12 9 -15 -1 -24 -6 -21 -11 3 -6
-11 -7 -33 -5 -22 3 -52 1 -69 -4 -18 -5 -43 -4 -64 3 -21 7 -36 8 -40 2 -3
-6 -15 -9 -25 -7 -26 4 -84 6 -128 5 -31 -1 -38 -5 -38 -21 0 -19 8 -19 485
-16 267 1 488 6 492 10 11 11 -19 26 -39 20 -12 -3 -18 0 -18 10 0 9 -4 16
-10 16 -5 0 -10 -4 -10 -10 0 -5 -5 -10 -11 -10 -7 0 -9 9 -6 23 5 19 4 20 -6
6 -11 -15 -15 -15 -32 -3 -25 19 -45 17 -74 -5z"/>
<path d="M1545 1569 c11 -6 33 -27 49 -47 16 -20 26 -29 22 -18 -12 34 -51 75
-71 75 -20 0 -20 0 0 -10z"/>
<path d="M690 1557 c14 -8 31 -12 38 -9 24 8 12 18 -25 20 -37 2 -38 2 -13
-11z"/>
<path d="M2155 1531 c3 -6 15 -11 26 -11 10 0 19 -6 19 -12 0 -10 2 -10 9 0
10 17 21 15 43 -5 15 -13 16 -13 14 1 -3 23 -7 24 -65 31 -36 4 -51 3 -46 -4z"/>
<path d="M995 1518 c-20 -54 -65 -201 -62 -204 7 -7 36 31 40 52 2 10 9 32 15
47 7 16 12 34 12 41 0 6 4 16 9 22 5 5 12 19 16 32 5 16 2 22 -10 22 -8 0 -18
-6 -20 -12z"/>
<path d="M1531 1526 c-2 -20 44 -130 47 -114 2 10 -8 41 -21 70 -14 29 -26 49
-26 44z"/>
<path d="M2313 1500 c-3 -11 -9 -17 -14 -14 -15 9 -10 -8 8 -28 17 -19 5 -26
-14 -7 -9 9 -9 0 -1 -32 11 -41 12 -42 21 -18 5 13 13 31 17 39 4 9 11 30 15
48 5 26 3 32 -10 32 -9 0 -19 -9 -22 -20z"/>
<path d="M1717 1442 c-20 -20 -37 -41 -37 -45 0 -11 60 39 78 64 22 31 0 21
-41 -19z"/>
<path d="M2332 1388 c-7 -7 -12 -14 -12 -17 0 -6 53 -9 158 -10 41 0 61 -4 57
-11 -3 -5 1 -10 9 -10 9 0 16 4 16 9 0 5 37 9 83 8 45 0 144 3 220 8 111 6
137 10 137 22 0 13 -15 14 -97 9 -231 -14 -491 -18 -497 -7 -9 15 -59 14 -74
-1z"/>
<path d="M1063 1348 c-6 -9 -2 -20 13 -37 l23 -23 -5 28 c-7 37 -18 49 -31 32z"/>
<path d="M357 1319 c-12 -3 -65 -6 -117 -7 -155 -3 -240 -13 -240 -27 0 -14
216 -12 405 4 55 4 108 4 117 -1 9 -4 19 -4 22 0 3 5 45 8 93 7 52 0 91 3 96
9 5 8 9 8 15 0 8 -13 72 -13 72 -1 0 5 6 5 13 0 18 -11 60 -4 77 14 13 14 12
15 -15 9 -16 -4 -37 -6 -45 -6 -70 4 -475 4 -493 -1z"/>
<path d="M2887 1310 c6 -22 23 -38 23 -21 0 6 9 11 19 11 11 0 23 5 26 10 4 7
-2 9 -18 5 -14 -4 -28 -2 -31 4 -12 19 -24 12 -19 -9z"/>
<path d="M2306 1311 c-2 -3 -11 -29 -19 -58 -14 -47 -14 -52 1 -58 9 -3 21 0
27 9 9 12 14 12 35 -5 27 -20 50 -25 50 -9 0 5 6 8 13 6 30 -10 127 -15 127
-8 0 19 -50 30 -114 25 -52 -5 -70 -3 -77 8 -7 11 -12 12 -29 2 -27 -17 -28
-17 -22 13 3 15 14 29 30 35 27 11 37 6 37 -18 0 -9 6 -18 14 -21 8 -3 11 0 7
7 -4 6 0 14 8 17 24 9 20 37 -4 31 -12 -3 -20 0 -20 8 0 13 -58 27 -64 16z"/>
<path d="M2834 1290 c4 -19 9 -42 10 -50 3 -17 36 -27 36 -11 0 6 -5 11 -11
11 -5 0 -7 5 -4 10 3 6 1 10 -6 10 -6 0 -9 8 -6 20 3 11 -2 25 -11 32 -14 12
-15 9 -8 -22z"/>
<path d="M2585 1300 c-3 -5 -12 -7 -20 -3 -23 8 -18 -15 6 -28 16 -8 27 -8 45
2 13 7 24 16 24 21 0 11 -18 10 -25 -2 -10 -16 -28 -12 -21 5 6 17 0 20 -9 5z"/>
<path d="M2440 1284 c0 -12 7 -14 32 -9 25 6 30 4 25 -7 -3 -10 1 -15 14 -14
11 1 19 4 19 9 0 4 0 11 0 16 0 13 -35 20 -54 9 -10 -6 -16 -5 -16 2 0 5 -4
10 -10 10 -5 0 -10 -7 -10 -16z"/>
<path d="M2793 1263 c-7 -2 -13 -11 -13 -19 0 -12 -4 -12 -21 -4 -15 8 -24 8
-33 1 -8 -6 -21 -9 -30 -5 -9 3 -16 1 -16 -5 0 -6 7 -12 15 -12 8 -1 21 -2 28
-3 6 -1 20 1 29 6 10 5 19 4 23 -2 9 -15 22 -12 29 8 3 9 9 23 12 30 6 12 -2
14 -23 5z"/>
<path d="M17 1232 c-9 -2 -17 -8 -17 -13 0 -5 31 -9 69 -9 39 0 73 -5 76 -10
4 -6 13 -7 23 -1 16 8 168 14 366 14 69 0 85 2 70 10 -17 10 -541 18 -587 9z"/>
<path d="M2554 1226 c-3 -8 0 -24 6 -36 l12 -22 22 21 c21 22 21 22 2 37 -25
18 -35 18 -42 0z"/>
<path d="M650 1220 c0 -6 25 -10 58 -9 43 1 51 3 32 9 -36 12 -90 12 -90 0z"/>
<path d="M770 1218 c0 -5 27 -8 60 -8 36 0 60 4 60 11 0 6 -22 9 -60 7 -33 -1
-60 -6 -60 -10z"/>
<path d="M2644 1206 c-6 -6 -9 -17 -6 -24 2 -6 -4 -12 -14 -12 -14 0 -15 -3
-6 -12 9 -9 15 -9 24 0 7 7 20 12 30 12 10 0 18 5 18 10 0 6 -6 10 -14 10 -8
0 -16 6 -18 14 -2 11 -6 11 -14 2z"/>
<path d="M2911 1211 c-11 -7 -10 -11 5 -19 17 -9 16 -11 -9 -17 -17 -5 -25
-11 -19 -17 11 -11 62 7 62 22 0 5 9 10 20 10 11 0 20 4 20 9 0 15 -18 23 -25
11 -3 -5 -11 -10 -16 -10 -6 0 -7 5 -4 10 8 12 -15 13 -34 1z"/>
<path d="M890 1178 c0 -7 -3 -23 -6 -36 -5 -18 -3 -21 10 -16 9 3 14 10 11 14
-3 5 7 13 22 18 25 9 26 10 6 11 -13 1 -23 6 -23 11 0 6 -4 10 -10 10 -5 0
-10 -6 -10 -12z"/>
<path d="M2753 1173 c-22 -8 -14 -23 11 -23 33 0 57 10 50 21 -6 10 -41 11
-61 2z"/>
<path d="M645 1159 c-10 -14 -1 -21 34 -25 30 -4 30 -3 11 16 -22 22 -36 25
-45 9z"/>
<path d="M1089 1155 c-3 -2 -22 -5 -43 -7 -51 -3 -57 -18 -8 -18 23 0 45 6 52
15 11 13 10 22 -1 10z"/>
<path d="M2480 1138 c0 -4 19 -8 42 -8 23 0 38 3 34 7 -10 10 -76 11 -76 1z"/>
<path d="M833 1110 c-3 -11 -10 -20 -15 -20 -5 0 -6 -4 -3 -10 10 -17 21 -11
33 15 15 32 15 35 1 35 -6 0 -13 -9 -16 -20z"/>
<path d="M2277 1113 c-15 -4 -16 -8 -6 -19 10 -12 8 -17 -5 -27 -11 -8 -15
-19 -10 -30 5 -15 15 -17 53 -13 55 5 91 16 91 26 0 7 -51 -1 -96 -15 -12 -4
-25 -2 -28 4 -4 6 0 11 9 11 11 0 15 7 13 23 -3 24 12 26 62 11 23 -7 24 -6
11 10 -8 9 -20 15 -27 12 -7 -3 -16 -1 -19 4 -6 10 -17 11 -48 3z"/>
<path d="M2920 1100 c-22 -7 -23 -8 -4 -9 12 -1 36 -4 53 -7 24 -5 31 -3 31
10 0 18 -35 20 -80 6z"/>
<path d="M2164 1083 c9 -49 19 -73 31 -73 7 0 23 -12 34 -27 l21 -28 -6 40
c-4 22 -11 45 -17 50 -7 7 -7 5 -2 -4 5 -9 4 -12 -3 -7 -7 4 -12 13 -12 19 0
12 -34 47 -45 47 -3 0 -3 -8 -1 -17z"/>
<path d="M460 1066 c0 -11 8 -13 34 -9 19 3 36 1 40 -6 4 -6 11 -11 17 -11 5
0 4 8 -2 18 -15 24 -89 30 -89 8z"/>
<path d="M2714 1064 c4 -9 1 -24 -6 -32 -11 -13 -10 -15 2 -10 19 7 178 -7
188 -16 11 -12 -41 -46 -70 -46 -16 0 -28 -4 -28 -9 0 -5 28 -8 63 -8 55 2 61
4 49 17 -9 9 -11 15 -4 18 6 2 8 10 5 18 -3 8 1 14 11 14 13 0 15 -6 10 -26
-6 -24 -5 -26 17 -19 32 10 50 25 43 37 -3 5 -11 5 -19 -2 -9 -8 -14 -6 -19 5
-3 8 -17 15 -31 15 -29 0 -33 14 -7 29 9 6 12 11 7 11 -6 0 -16 -5 -22 -11
-18 -18 -121 -20 -138 -2 -8 8 -15 19 -15 24 0 5 -9 9 -21 9 -15 0 -19 -4 -15
-16z"/>
<path d="M2547 1064 c-13 -14 -7 -22 13 -17 11 3 26 1 33 -4 6 -6 32 -13 55
-17 33 -5 43 -3 40 6 -3 8 -19 12 -39 11 -19 -1 -36 2 -39 7 -7 12 -54 22 -63
14z"/>
<path d="M797 1048 c-22 -8 -26 -13 -16 -24 9 -11 7 -14 -10 -14 -12 0 -20 -4
-16 -9 3 -5 -3 -11 -12 -14 -14 -3 -11 -6 10 -11 27 -8 38 -26 15 -26 -6 0 -8
-3 -5 -6 9 -9 37 15 37 32 0 8 -6 11 -15 8 -8 -4 -15 -1 -15 5 0 6 3 10 8 10
22 -4 34 4 43 27 12 33 11 34 -24 22z"/>
<path d="M2110 1042 c0 -12 9 -37 20 -57 11 -20 20 -44 20 -55 0 -10 11 -27
25 -38 13 -11 30 -31 36 -46 16 -34 30 -34 18 2 -19 57 -22 62 -40 62 -11 0
-19 5 -19 11 0 5 5 7 10 4 21 -13 2 27 -47 103 -19 29 -23 31 -23 14z"/>
<path d="M341 1033 c-1 -6 -7 -18 -14 -25 -11 -11 -4 -13 39 -13 53 0 61 10
14 17 -14 1 -28 10 -32 18 -4 8 -7 10 -7 3z"/>
<path d="M621 1024 c-12 -14 -12 -17 0 -25 8 -5 23 -8 34 -7 17 1 17 1 -2 5
-27 5 -29 18 -5 32 13 8 14 10 2 10 -8 0 -21 -7 -29 -15z"/>
<path d="M2410 1023 c-19 -9 -20 -13 -7 -13 9 0 17 -3 17 -8 0 -4 23 -7 50 -6
28 1 50 5 50 8 0 3 0 11 0 17 0 7 -9 9 -21 6 -12 -3 -31 -2 -43 2 -12 5 -31 2
-46 -6z"/>
<path d="M2612 999 c5 -16 138 -26 138 -11 0 6 -10 10 -22 10 -13 -1 -45 3
-72 7 -39 7 -48 5 -44 -6z"/>
<path d="M2270 994 c0 -2 8 -12 18 -22 13 -13 29 -17 60 -14 54 5 65 21 12 18
-22 -2 -44 2 -48 8 -6 10 -42 19 -42 10z"/>
<path d="M2548 977 c-14 -12 -35 -27 -45 -34 -15 -10 -11 -12 27 -12 25 0 39
3 33 6 -22 8 -14 31 12 37 14 4 23 11 20 16 -9 15 -17 12 -47 -13z"/>
<path d="M2260 921 c0 -16 -3 -36 -6 -45 -4 -11 0 -14 15 -11 12 2 25 -3 31
-13 9 -16 9 -16 10 0 0 12 5 15 18 11 9 -4 19 -10 22 -14 5 -7 49 -12 78 -10
6 1 12 6 12 11 0 6 -20 10 -45 10 -47 0 -67 17 -58 51 6 22 -16 25 -48 9 -13
-7 -19 -7 -19 0 0 5 5 10 11 10 5 0 7 5 4 10 -12 20 -25 10 -25 -19z"/>
<path d="M2387 930 c15 -16 60 -22 68 -9 4 5 -5 9 -19 9 -13 0 -33 3 -43 6
-14 6 -16 4 -6 -6z"/>
<path d="M736 914 c-4 -11 -14 -15 -31 -12 -14 3 -25 1 -25 -3 0 -12 43 -11
74 1 14 5 26 14 26 20 0 16 -37 11 -44 -6z"/>
<path d="M493 898 c-2 -5 24 -8 58 -8 34 0 59 3 55 8 -4 4 -30 7 -58 7 -27 0
-52 -3 -55 -7z"/>
<path d="M2490 891 c-20 -6 -15 -9 30 -13 30 -2 62 -1 70 3 13 7 13 8 -1 9 -9
0 -29 2 -45 4 -16 3 -40 1 -54 -3z"/>
<path d="M380 851 c0 -12 47 -20 73 -13 21 6 21 6 -3 13 -36 10 -70 10 -70 0z"/>
<path d="M710 841 c0 -5 -6 -9 -12 -8 -7 0 -26 -1 -43 -2 l-30 -3 30 -13 c46
-21 75 -19 75 6 0 15 5 19 15 15 8 -3 15 -1 15 4 0 6 -11 10 -25 10 -14 0 -25
-4 -25 -9z"/>
<path d="M2145 819 c19 -36 25 -35 18 4 -3 15 -12 27 -19 27 -12 0 -12 -5 1
-31z"/>
<path d="M2102 793 c7 -15 19 -34 26 -42 22 -23 69 -124 76 -165 5 -24 11 -35
17 -29 22 22 -60 223 -92 223 -5 0 -8 4 -4 9 3 6 -4 15 -15 21 -19 10 -19 9
-8 -17z"/>
<path d="M2201 783 c0 -24 4 -43 9 -43 6 0 10 6 10 14 0 8 3 22 7 32 4 11 3
15 -5 11 -6 -4 -13 1 -15 10 -3 10 -5 -1 -6 -24z"/>
<path d="M355 794 c-39 -13 -39 -13 -6 -9 18 3 45 5 60 5 20 0 23 2 11 10 -18
12 -15 12 -65 -6z"/>
<path d="M277 763 c-14 -13 -6 -23 17 -21 15 1 22 7 19 15 -5 14 -25 17 -36 6z"/>
<path d="M366 747 c7 -20 44 -30 44 -11 0 8 -4 14 -9 14 -5 0 -17 3 -25 6 -12
4 -15 2 -10 -9z"/>
<path d="M660 710 c-17 -11 -7 -24 26 -34 15 -5 24 -2 28 10 12 31 -20 46 -54
24z"/>
<path d="M2890 688 c0 -9 -6 -19 -12 -21 -7 -3 2 -6 20 -6 18 -1 32 4 32 11 0
6 -3 8 -7 5 -3 -4 -12 1 -19 11 -12 16 -13 16 -14 0z"/>
<path d="M2577 673 c-13 -12 -7 -20 13 -18 11 1 26 7 32 13 9 9 6 12 -13 12
-14 0 -29 -3 -32 -7z"/>
<path d="M360 650 c-31 -5 -37 -8 -20 -10 45 -5 117 0 141 9 20 8 15 10 -26 9
-27 -1 -70 -4 -95 -8z"/>
<path d="M586 651 c-3 -5 -15 -7 -26 -4 -11 3 -20 1 -20 -5 0 -13 35 -22 93
-22 52 0 63 14 20 24 -16 4 -35 9 -45 12 -9 3 -19 1 -22 -5z"/>
<path d="M353 597 c2 -7 9 -12 15 -11 7 1 21 2 33 3 31 2 14 18 -21 19 -20 0
-30 -4 -27 -11z"/>
<path d="M230 588 c0 -5 26 -8 57 -8 31 0 53 3 50 7 -10 9 -107 10 -107 1z"/>
<path d="M480 580 c0 -5 -7 -10 -15 -10 -8 0 -15 -4 -15 -10 0 -5 9 -10 20
-10 11 0 20 2 20 4 0 2 3 11 6 20 3 9 1 16 -5 16 -6 0 -11 -4 -11 -10z"/>
<path d="M691 544 c-1 -15 9 -27 33 -38 19 -9 38 -16 43 -16 6 0 36 -28 68
-62 114 -124 138 -148 147 -148 4 0 8 -9 8 -19 0 -10 6 -21 14 -24 25 -10 6
28 -36 68 -22 22 -52 53 -66 69 -88 98 -129 136 -147 136 -23 1 -49 19 -58 40
-4 10 -6 9 -6 -6z"/>
<path d="M308 518 c6 -8 10 -17 7 -19 -2 -3 12 -6 31 -6 42 -1 41 1 -11 23
-32 13 -37 13 -27 2z"/>
<path d="M375 520 c3 -5 12 -10 20 -10 7 0 16 -6 18 -12 4 -9 8 -9 14 -3 4 6
14 10 22 10 8 0 16 6 19 13 3 9 -3 10 -23 2 -18 -7 -33 -7 -45 0 -24 13 -33
13 -25 0z"/>
<path d="M2800 511 c0 -5 -12 -14 -27 -19 -20 -7 -22 -11 -10 -11 11 -1 33 5
50 13 18 8 39 17 47 19 8 3 -2 6 -22 6 -21 1 -38 -3 -38 -8z"/>
<path d="M2348 458 c-3 -7 -16 -12 -31 -10 -14 1 -29 -3 -32 -8 -4 -6 9 -10
30 -10 33 0 57 21 42 36 -3 3 -7 -1 -9 -8z"/>
<path d="M670 441 c0 -11 21 -19 38 -14 21 8 13 23 -13 23 -14 0 -25 -4 -25
-9z"/>
<path d="M2198 400 c11 -33 18 -43 20 -29 4 21 -18 79 -29 79 -4 0 0 -22 9
-50z"/>
<path d="M2286 412 c-9 -15 9 -29 42 -34 21 -3 31 -1 29 6 -2 6 -18 12 -35 14
-18 2 -30 8 -27 13 4 5 4 9 1 9 -3 0 -7 -4 -10 -8z"/>
<path d="M79 348 c-11 -8 -10 -9 4 -4 12 4 17 0 17 -12 0 -13 2 -14 9 -4 5 8
18 11 37 7 28 -5 29 -5 4 6 -38 16 -55 18 -71 7z"/>
<path d="M2357 344 c-4 -4 -7 -13 -7 -21 0 -19 45 -16 61 4 13 15 11 16 -13
10 -15 -4 -28 -3 -30 4 -2 5 -7 7 -11 3z"/>
<path d="M2833 321 c1 -11 5 -21 9 -21 4 0 8 -4 8 -10 0 -5 -7 -10 -15 -10 -8
0 -15 -5 -15 -11 0 -5 13 -2 30 8 23 13 27 20 17 28 -6 5 -17 16 -24 24 -10
11 -12 10 -10 -8z"/>
<path d="M655 310 c-4 -6 7 -10 24 -10 17 0 31 5 31 10 0 6 -11 10 -24 10 -14
0 -28 -4 -31 -10z"/>
<path d="M577 304 c-10 -11 3 -24 24 -24 23 0 25 15 3 24 -19 7 -19 7 -27 0z"/>
<path d="M2241 269 c-12 -19 -20 -45 -20 -59 1 -20 2 -21 6 -5 13 63 39 81 91
65 17 -6 46 -14 63 -20 26 -8 29 -7 19 5 -6 7 -30 18 -53 24 -23 5 -52 13 -64
16 -18 6 -26 1 -42 -26z"/>
<path d="M2140 288 c0 -2 8 -25 19 -52 15 -39 19 -45 24 -27 3 11 1 21 -5 21
-5 0 -6 5 -3 11 4 6 -2 19 -14 30 -12 11 -21 18 -21 17z"/>
<path d="M2677 269 c-10 -6 -27 -9 -38 -6 -23 6 -26 -11 -4 -19 9 -4 29 -7 45
-8 16 -1 32 -4 36 -8 8 -9 24 -1 24 12 0 5 -7 7 -16 3 -11 -4 -15 -1 -12 12 4
22 -11 28 -35 14z"/>
<path d="M2453 243 c9 -2 17 -8 17 -12 0 -4 9 -18 20 -31 19 -22 21 -22 38 -7
10 10 22 14 25 10 4 -3 7 1 7 10 0 10 -4 17 -10 17 -5 0 -10 -4 -10 -10 0 -5
-9 -10 -21 -10 -16 0 -19 4 -14 20 6 18 2 20 -32 19 -21 -1 -30 -3 -20 -6z"/>
<path d="M640 226 c-14 -8 -38 -19 -55 -26 l-30 -12 30 -12 c21 -9 32 -10 37
-2 4 6 0 14 -10 18 -14 5 -12 7 6 7 19 1 22 -3 17 -19 -7 -22 5 -26 23 -8 9 9
8 16 -5 30 -15 17 -13 18 45 18 35 0 62 4 62 10 0 15 -91 12 -120 -4z"/>
<path d="M850 231 c27 -16 145 -17 135 -1 -4 6 -13 7 -22 1 -9 -4 -32 -5 -52
0 -20 5 -45 8 -56 8 -16 0 -17 -1 -5 -8z"/>
<path d="M10 220 c18 -12 57 -13 64 -2 2 4 -14 9 -37 9 -30 2 -37 -1 -27 -7z"/>
<path d="M2850 221 c0 -10 -79 -34 -101 -31 -33 5 -80 -1 -75 -9 6 -9 106 -5
134 4 6 2 12 0 12 -5 0 -6 4 -10 10 -10 5 0 7 7 4 15 -4 9 0 15 10 15 9 0 16
7 16 15 0 8 -2 15 -5 15 -3 0 -5 -4 -5 -9z"/>
<path d="M919 190 c-7 -5 -28 -6 -47 -3 -35 6 -35 6 -16 -13 11 -12 22 -16 25
-11 4 6 14 7 23 4 9 -4 16 -2 16 3 0 5 12 10 28 12 24 3 25 4 6 9 -12 4 -28 3
-35 -1z"/>
<path d="M2211 128 c1 -55 5 -50 11 15 2 20 0 37 -4 37 -4 0 -7 -24 -7 -52z"/>
<path d="M715 131 c-9 -8 7 -21 26 -21 10 0 19 6 19 13 0 12 -35 18 -45 8z"/>
<path d="M2794 129 c-3 -6 -17 -8 -29 -5 -13 3 -27 2 -30 -4 -4 -6 11 -10 38
-10 32 0 44 4 44 15 0 17 -13 20 -23 4z"/>
<path d="M925 120 c3 -5 11 -8 16 -4 5 3 15 1 22 -4 7 -5 23 -13 37 -16 17 -5
21 -4 12 2 -8 5 -13 13 -13 17 1 5 -17 10 -40 12 -27 3 -39 1 -34 -7z"/>
<path d="M1180 126 c0 -7 130 -47 249 -77 121 -30 163 -33 64 -4 -32 9 -63 21
-69 26 -7 5 -16 9 -20 7 -9 -2 -59 9 -149 34 -52 15 -75 19 -75 14z"/>
<path d="M223 96 c-7 -8 -18 -16 -25 -19 -31 -11 32 -32 65 -21 9 3 14 10 11
16 -4 7 -9 6 -14 -2 -9 -14 -30 -5 -30 12 0 8 27 9 85 5 51 -4 85 -2 85 3 0 6
-10 9 -22 8 -13 0 -50 2 -83 5 -45 5 -63 3 -72 -7z"/>
</g>
</svg>
